<svg id="Group_16" data-name="Group 16" xmlns="http://www.w3.org/2000/svg" viewBox="0 0 167.805 100.2">
  <defs>
    <style>
      .cls-1 {
        fill: #ff5440;
      }
    </style>
  </defs>
  <g id="Group_15" data-name="Group 15">
    <g id="Group_10" data-name="Group 10">
      <g id="Group_2" data-name="Group 2">
        <g id="Group_1" data-name="Group 1">
          <path id="Path_1" data-name="Path 1" class="cls-1" d="M163.7,76.4a13.45,13.45,0,0,0-9.8-4.1,13.13,13.13,0,0,0-9.8,4.1,13.45,13.45,0,0,0-4.1,9.8,13.288,13.288,0,0,0,4.1,9.8,13.762,13.762,0,0,0,19.6,0,13.071,13.071,0,0,0,4.1-9.8A12.716,12.716,0,0,0,163.7,76.4Zm-3.2,16.4a8.914,8.914,0,0,1-6.5,2.7,9.307,9.307,0,0,1-6.6-2.7,8.978,8.978,0,0,1-2.7-6.6,9.14,9.14,0,0,1,2.7-6.6,9.3,9.3,0,0,1,13.1,13.2Z"/>
        </g>
      </g>
      <g id="Group_3" data-name="Group 3">
        <rect id="Rectangle_1" data-name="Rectangle 1" class="cls-1" width="4.6" height="27.9" transform="translate(130 72.3)"/>
      </g>
      <g id="Group_5" data-name="Group 5">
        <g id="Group_4" data-name="Group 4">
          <path id="Path_2" data-name="Path 2" class="cls-1" d="M120.5,76.4a14.343,14.343,0,0,0-4.4-3,14.083,14.083,0,0,0-5.4-1.1h-8.8a.472.472,0,0,0-.5.5V99.7a.472.472,0,0,0,.5.5h8.8a14.083,14.083,0,0,0,5.4-1.1,12.3,12.3,0,0,0,4.4-3,14.343,14.343,0,0,0,3-4.4,13.8,13.8,0,0,0,0-10.8A13.656,13.656,0,0,0,120.5,76.4Zm-1.3,13.4a9.847,9.847,0,0,1-2,3,7.912,7.912,0,0,1-3,2,8.571,8.571,0,0,1-3.6.7H106V76.9h4.7a8.888,8.888,0,0,1,3.6.7,12.086,12.086,0,0,1,3,2,9.847,9.847,0,0,1,2,3,8.571,8.571,0,0,1,.7,3.6A10.525,10.525,0,0,1,119.2,89.8Z"/>
        </g>
      </g>
      <g id="Group_6" data-name="Group 6">
        <path id="Path_3" data-name="Path 3" class="cls-1" d="M91.3,89,73.7,73a.539.539,0,0,0-.9.4v26.7h4.6V83.5L95.1,99.4A.529.529,0,0,0,96,99V72.2H91.4V89Z"/>
      </g>
      <g id="Group_8" data-name="Group 8">
        <g id="Group_7" data-name="Group 7">
          <path id="Path_4" data-name="Path 4" class="cls-1" d="M52.9,73.3,39.5,100.2h5.2l2.4-4.6H59.9l2.3,4.6h5.2L54,73.3A.653.653,0,0,0,52.9,73.3ZM49.4,90.9l4.1-8.2,4.1,8.2Z"/>
        </g>
      </g>
      <g id="Group_9" data-name="Group 9">
        <path id="Path_5" data-name="Path 5" class="cls-1" d="M40.2,72.3,31.4,89.8,23.1,73.2a.487.487,0,0,0-.9,0L14,89.8,5.2,72.3H0L13.7,99.6c.1.2.4.2.6,0l8.4-16.9,8.5,16.9c.1.2.4.2.6,0L45.5,72.3Z"/>
      </g>
    </g>
    <g id="Group_12" data-name="Group 12">
      <g id="Group_11" data-name="Group 11">
        <path id="Path_6" data-name="Path 6" class="cls-1" d="M104.8,28.7a16.61,16.61,0,0,0-4.1-10.4c-2.6-2.9-6.9-4.4-11-4.4a14.542,14.542,0,0,0-11,4.3A16.106,16.106,0,0,0,73.9,29a24.977,24.977,0,0,0,2.4,10.4h0l.6,1.2c.3.5.7,1.3,1,1.9l.9,1.5a52.01,52.01,0,0,0,5.3,6.2c-2.3,2-9.3,4.6-12.4,5.4a57.531,57.531,0,0,1-17.2,1.9c-21.8-.8-38.7-17.3-45-37.7h0c0-.1-.1-.3-.1-.4-.2-.5-.3-1.1-.5-1.7-.1-.3-.2-.6-.3-1-.1-.5-.3-1.1-.4-1.6A71.91,71.91,0,0,1,6.7,0H.2A61.936,61.936,0,0,0,.5,7.2c.2,2.8.5,5.2.7,6.5.3,1.8.7,3.5,1.1,5.2a.367.367,0,0,0,.1.3h0c8.4,31.6,37.4,52,71,42.5h0c.2,0,.3-.1.4-.1.3-.1.5-.1.8-.2.9-.3,1.7-.6,2.5-.9A50.1,50.1,0,0,0,96.7,47.8h0a33.766,33.766,0,0,0,4.6-6.3A24.7,24.7,0,0,0,104.8,28.7ZM95.4,39.6a28.813,28.813,0,0,1-6.2,6.8,36.934,36.934,0,0,1-6-6.8,21.05,21.05,0,0,1-3.4-10.1,9.567,9.567,0,0,1,9.3-9.4,9.432,9.432,0,0,1,9.3,9.4C98.6,31.8,97.6,36,95.4,39.6Z"/>
      </g>
    </g>
    <g id="Group_14" data-name="Group 14">
      <g id="Group_13" data-name="Group 13">
        <path id="Path_7" data-name="Path 7" class="cls-1" d="M161,30.8c-2.5,12.6-13,20.8-24.6,24.2a54.3,54.3,0,0,1-36.2-2.1h-.1l-2.8,2.4-2.7,2.3a30.335,30.335,0,0,0,4.5,1.9,76.759,76.759,0,0,0,12.1,3.3c16.8,2.8,35.2-1.3,46.5-12.9a35.829,35.829,0,0,0,9.9-19.2Z"/>
      </g>
    </g>
  </g>
</svg>
