<svg xmlns="http://www.w3.org/2000/svg" width="60" height="46" viewBox="0 0 60 46">
  <g id="cb_logo" data-name="cb logo" transform="translate(4296.103 13131)">
    <path id="Path_3647" data-name="Path 3647" d="M347.931,156.627l-12.093-12.093a4.183,4.183,0,0,0-5.914,0l-9.57,9.57a1.74,1.74,0,0,1-2.459,0l-9.57-9.57a4.183,4.183,0,0,0-5.914,0l-.989.989a.434.434,0,0,0,0,.614l28.5,28.5a4.183,4.183,0,0,0,5.914,0l12.093-12.093A4.184,4.184,0,0,0,347.931,156.627Zm-6.813,4.186-7.007,7.007a1.738,1.738,0,0,1-2.457,0l-7.007-7.007a1.738,1.738,0,0,1,0-2.457l7.007-7.007a1.738,1.738,0,0,1,2.457,0l7.007,7.007A1.738,1.738,0,0,1,341.118,160.813Z" transform="translate(-4585.26 -13274.31)" fill="#fff"/>
    <path id="Path_3648" data-name="Path 3648" d="M240.271,192.121,237,195.393a1.738,1.738,0,0,1-2.457,0l-7.007-7.007a1.738,1.738,0,0,1,0-2.457l5.815-5.815a.434.434,0,0,0,0-.614l-3.656-3.656a.434.434,0,0,0-.614,0l-8.358,8.358a4.18,4.18,0,0,0,0,5.912l12.093,12.093a4.183,4.183,0,0,0,5.914,0l8.358-8.358a.434.434,0,0,0,0-.614l-1.114-1.114A4.036,4.036,0,0,0,240.271,192.121Z" transform="translate(-4515.573 -13301.883)" fill="#1caf4b"/>
    <g id="Group_3840" data-name="Group 3840" transform="translate(-4296.103 -13094.635)">
      <path id="Path_3649" data-name="Path 3649" d="M307.647,430.05c-3.23,0-4.247-2.267-4.247-3.91s1.017-3.91,4.247-3.91h0c3.23,0,4.247,2.267,4.247,3.91s-1.017,3.91-4.247,3.91Zm0-1.825a2.089,2.089,0,1,0,0-4.172h0a2.089,2.089,0,1,0,0,4.172Z" transform="translate(-290.882 -420.415)" fill="#1caf4b"/>
      <path id="Path_3650" data-name="Path 3650" d="M420.067,430.05c-3.23,0-4.247-2.267-4.247-3.91s1.017-3.91,4.247-3.91h0c3.23,0,4.247,2.267,4.247,3.91s-1.018,3.91-4.247,3.91Zm0-1.825a2.089,2.089,0,1,0,0-4.172h0a2.089,2.089,0,1,0,0,4.172Z" transform="translate(-386.567 -420.415)" fill="#1caf4b"/>
      <path id="Path_3651" data-name="Path 3651" d="M225.394,424.541l.695-1.168a.145.145,0,0,0-.024-.182,3.561,3.561,0,0,0-2.508-.962c-3.23,0-4.247,2.267-4.247,3.91s1.017,3.91,4.247,3.91a3.3,3.3,0,0,0,2.686-1.229.146.146,0,0,0,0-.164l-.722-1.123a.148.148,0,0,0-.215-.037,2.92,2.92,0,0,1-1.925.729,2.071,2.071,0,0,1-2.022-2.086,1.991,1.991,0,0,1,2.195-2.086,2.749,2.749,0,0,1,1.625.532A.148.148,0,0,0,225.394,424.541Z" transform="translate(-219.31 -420.415)" fill="#1caf4b"/>
      <path id="Path_3652" data-name="Path 3652" d="M373.164,424.541l.695-1.168a.145.145,0,0,0-.024-.182,3.561,3.561,0,0,0-2.508-.962c-3.23,0-4.247,2.267-4.247,3.91s1.017,3.91,4.247,3.91a3.3,3.3,0,0,0,2.686-1.229.146.146,0,0,0,0-.164l-.722-1.123a.148.148,0,0,0-.215-.037,2.92,2.92,0,0,1-1.925.729,2.071,2.071,0,0,1-2.022-2.086,1.991,1.991,0,0,1,2.195-2.086,2.749,2.749,0,0,1,1.625.532A.148.148,0,0,0,373.164,424.541Z" transform="translate(-345.081 -420.415)" fill="#1caf4b"/>
      <path id="Path_3653" data-name="Path 3653" d="M273.606,426.008c0,.185,0,3.2,0,3.9a.147.147,0,0,1-.148.148h-1.98a.147.147,0,0,1-.148-.148v-3.774c0-1.5.842-3.831,4.257-3.9a.15.15,0,0,1,.152.149v1.53a.146.146,0,0,1-.143.148A1.808,1.808,0,0,0,273.606,426.008Z" transform="translate(-263.573 -420.424)" fill="#1caf4b"/>
      <path id="Path_3654" data-name="Path 3654" d="M483.494,411.871a3.671,3.671,0,0,0-1.637.513v-2.179a.148.148,0,0,0-.16-.148l-1.98.151a.148.148,0,0,0-.137.148v8.57a.148.148,0,0,0,.092.137,10.639,10.639,0,0,0,3.82.626,3.909,3.909,0,1,0,0-7.818Zm-.115,6a5.914,5.914,0,0,1-1.522-.161v-3.448a2.129,2.129,0,0,1,1.522-.564,2.089,2.089,0,0,1,0,4.172Z" transform="translate(-440.835 -410.058)" fill="#fff"/>
      <path id="Path_3655" data-name="Path 3655" d="M599.123,419.378a.148.148,0,0,1-.112.174,6.084,6.084,0,0,1-1.326.14,2.283,2.283,0,0,1-2.615-2.352v-6.985a.148.148,0,0,1,.137-.148l1.98-.151a.148.148,0,0,1,.159.148v1.518a.147.147,0,0,0,.148.148H598.7a.147.147,0,0,1,.148.148v1.53a.147.147,0,0,1-.148.148h-1.206a.147.147,0,0,0-.148.148v3.03c.016,1.053.458,1.245,1.366,1.145a.148.148,0,0,1,.163.118Z" transform="translate(-539.126 -410.058)" fill="#fff"/>
      <path id="Path_3656" data-name="Path 3656" d="M541.213,425.466h2.463a.581.581,0,0,0,.632-.571.951.951,0,0,0-.993-.85A2.016,2.016,0,0,0,541.213,425.466Zm2.1-3.246c1.25,0,3.058.8,3.058,2.571,0,1.47-1.109,2.334-3.36,2.334h-1.637a2.376,2.376,0,0,0,2.241,1.253,3.89,3.89,0,0,0,1.8-.491.148.148,0,0,1,.2.076c.162.4.321.784.482,1.18a.149.149,0,0,1-.064.186,5.265,5.265,0,0,1-2.736.711h0c-3.23,0-4.235-2.267-4.235-3.91S540.087,422.22,543.317,422.22Z" transform="translate(-491.477 -420.407)" fill="#fff"/>
    </g>
  </g>
</svg>
